<svg xmlns="http://www.w3.org/2000/svg" width="485" height="535" fill="none" xmlns:v="https://vecta.io/nano"><path d="M153.614 89.096L242.709 0l89.096 89.096-89.096 89.096-89.095-89.095z" fill="#237"/><path d="M1 302.217L242.831 60.386l59.397 59.397L60.397 361.614 1 302.217z" fill="#34a"/><path d="M243.011 60l241.83 241.831-59.397 59.397-241.83-241.831L243.011 60z" fill="#59f"/><path d="M87.614 378.445L243.058 223l155.445 155.445-155.445 155.444L87.614 378.445z" fill="#34a"/><path d="M.614 377.66L76.274 302l75.661 75.66-75.661 75.661L.614 377.66zm333 0l75.66-75.66 75.661 75.66-75.661 75.661-75.66-75.661z" fill="#59f"/></svg>