<svg width="485" height="535" viewBox="0 0 485 535" fill="none" xmlns="http://www.w3.org/2000/svg">
<path d="M153.614 89.0955L242.709 0L331.805 89.0955L242.709 178.191L153.614 89.0955Z" fill="#223377"/>
<path d="M1 302.217L242.831 60.3862L302.228 119.783L60.397 361.614L1 302.217Z" fill="#3344AA"/>
<path d="M243.011 60L484.841 301.831L425.444 361.228L183.614 119.397L243.011 60Z" fill="#5599FF"/>
<path d="M87.6137 378.445L243.058 223L398.503 378.445L243.058 533.889L87.6137 378.445Z" fill="#3344AA"/>
<path d="M0.613739 377.66L76.2742 302L151.935 377.66L76.2742 453.321L0.613739 377.66Z" fill="#5599FF"/>
<path d="M333.614 377.66L409.274 302L484.935 377.66L409.274 453.321L333.614 377.66Z" fill="#5599FF"/>
</svg>
