<svg width="677" height="677" viewBox="0 0 677 677" fill="none" xmlns="http://www.w3.org/2000/svg">
<path fill-rule="evenodd" clip-rule="evenodd" d="M253 40C253 17.9086 270.909 0 293 0H384C406.091 0 424 17.9086 424 40V90.5376C434.327 93.9139 444.374 97.8851 454.098 102.409L489.325 67.1823C504.946 51.5613 530.273 51.5613 545.894 67.1823L610.24 131.529C625.861 147.15 625.861 172.477 610.24 188.098L578.059 220.279C583.542 230.796 588.316 241.723 592.32 253H637C659.091 253 677 270.909 677 293V384C677 406.091 659.091 424 637 424H592.32C588.281 435.376 583.458 446.396 577.914 456.999L610.24 489.325C625.861 504.946 625.861 530.273 610.24 545.894L545.894 610.24C530.273 625.861 504.946 625.861 489.325 610.24L453.81 574.725C444.176 579.193 434.225 583.12 424 586.462V637C424 659.091 406.091 677 384 677H293C270.909 677 253 659.091 253 637V586.462C242.877 583.153 233.023 579.272 223.479 574.859L188.098 610.24C172.477 625.861 147.15 625.861 131.529 610.24L67.1823 545.894C51.5613 530.273 51.5613 504.946 67.1823 489.325L99.2309 457.276C93.6263 446.589 88.7544 435.475 84.6798 424H40C17.9086 424 0 406.091 0 384V293C0 270.909 17.9086 253 40 253H84.6798C88.7192 241.624 93.5421 230.604 99.0857 220.001L67.1823 188.098C51.5613 172.477 51.5613 147.15 67.1823 131.529L131.529 67.1823C147.15 51.5613 172.477 51.5613 188.098 67.1823L223.191 102.275C232.824 97.8066 242.775 93.8806 253 90.5376V40ZM339 514C435.65 514 514 435.65 514 339C514 242.35 435.65 164 339 164C242.35 164 164 242.35 164 339C164 435.65 242.35 514 339 514Z" fill="#22AADD"/>
</svg>
